<?xml version="1.0" encoding="UTF-8" standalone="no"?>
<svg width="1618px" height="542px" viewBox="0 0 1618 542" version="1.1" xmlns="http://www.w3.org/2000/svg" xmlns:xlink="http://www.w3.org/1999/xlink" xmlns:sketch="http://www.bohemiancoding.com/sketch/ns">
    <!-- Generator: Sketch 3.1.1 (8761) - http://www.bohemiancoding.com/sketch -->
    <title>Artboard 1</title>
    <desc>Created with Sketch.</desc>
    <defs></defs>
    <g id="Page-1" stroke="none" stroke-width="1" fill="none" fill-rule="evenodd" sketch:type="MSPage">
        <g id="Artboard-1" sketch:type="MSArtboardGroup" fill="#FFFFFF">
            <path d="M122.848,317.92 L96.928,224.608 C96.64,223.456 95.344,222.736 94.192,222.736 C92.896,222.736 91.744,223.456 91.744,225.04 C91.744,225.328 91.744,225.472 91.888,225.904 L120.256,326.848 C120.544,328.288 121.696,328.864 122.848,328.864 C124.144,328.864 125.152,328.144 125.584,326.848 L141.28,270.4 L157.12,326.848 C157.408,328.288 158.56,328.864 159.712,328.864 C161.008,328.864 162.016,328.144 162.448,326.848 L190.528,225.904 C190.672,225.472 190.672,225.328 190.672,225.04 C190.672,223.456 189.52,222.736 188.224,222.736 C187.072,222.736 185.776,223.456 185.488,224.608 L159.712,317.92 L144.16,262.48 C143.584,260.464 142.72,260.032 141.28,260.032 C139.84,260.032 138.688,260.464 138.112,262.48 L122.848,317.92 Z M231.552,227.92 L280.224,227.92 C281.808,227.92 282.672,226.624 282.672,225.184 C282.672,224.032 281.952,222.736 280.224,222.736 L228.96,222.736 C227.664,222.736 226.368,223.6 226.368,225.328 L226.368,325.408 C226.368,327.136 227.664,328 228.96,328 L280.224,328 C281.952,328 282.672,326.704 282.672,325.552 C282.672,324.112 281.808,322.816 280.224,322.816 L231.552,322.816 L231.552,277.888 L254.592,277.888 C256.32,277.888 257.04,276.592 257.04,275.44 C257.04,274 256.176,272.704 254.592,272.704 L231.552,272.704 L231.552,227.92 Z M312.32,328 C313.472,328 314.48,327.424 314.912,326.128 L322.112,302.512 L365.024,302.512 L372.368,326.128 C372.8,327.424 373.664,328 374.672,328 C376.112,328 377.552,326.848 377.552,325.552 C377.552,325.264 377.408,325.12 377.408,324.832 L346.448,223.888 C346.016,222.592 344.864,221.872 343.712,221.872 C342.56,221.872 341.552,222.448 341.12,223.888 L309.872,324.832 C309.728,325.12 309.728,325.408 309.728,325.696 C309.728,327.136 311.024,328 312.32,328 L312.32,328 Z M323.696,297.328 L343.712,232.816 L363.44,297.328 L323.696,297.328 Z M423.472,227.92 L423.472,325.408 C423.472,327.136 424.768,328 426.064,328 C427.36,328 428.656,327.136 428.656,325.408 L428.656,227.92 L454.144,227.92 C456.016,227.92 456.736,226.48 456.736,225.184 C456.736,223.888 455.872,222.736 454.144,222.736 L397.84,222.736 C396.256,222.736 395.248,224.032 395.248,225.328 C395.248,226.624 396.256,227.92 397.84,227.92 L423.472,227.92 Z M541.824,325.408 C541.824,327.136 543.12,328 544.416,328 C545.712,328 547.008,327.136 547.008,325.408 L547.008,225.184 C547.008,223.456 545.712,222.736 544.416,222.736 C543.12,222.736 541.824,223.456 541.824,225.184 L541.824,270.832 L495.888,270.832 L495.888,225.184 C495.888,223.456 494.592,222.736 493.296,222.736 C492,222.736 490.704,223.456 490.704,225.184 L490.704,325.408 C490.704,327.136 492,328 493.296,328 C494.592,328 495.888,327.136 495.888,325.408 L495.888,276.016 L541.824,276.016 L541.824,325.408 Z M596.096,227.92 L644.768,227.92 C646.352,227.92 647.216,226.624 647.216,225.184 C647.216,224.032 646.496,222.736 644.768,222.736 L593.504,222.736 C592.208,222.736 590.912,223.6 590.912,225.328 L590.912,325.408 C590.912,327.136 592.208,328 593.504,328 L644.768,328 C646.496,328 647.216,326.704 647.216,325.552 C647.216,324.112 646.352,322.816 644.768,322.816 L596.096,322.816 L596.096,277.888 L619.136,277.888 C620.864,277.888 621.584,276.592 621.584,275.44 C621.584,274 620.72,272.704 619.136,272.704 L596.096,272.704 L596.096,227.92 Z M682.624,325.408 C682.624,327.136 683.92,328 685.216,328 C686.512,328 687.808,327.136 687.808,325.408 L687.808,277.888 L709.12,277.888 L732.16,322.816 C733.168,324.832 734.32,328 736.336,328 C737.776,328 738.928,326.848 738.928,325.408 C738.928,324.976 738.784,324.4 738.496,323.824 L714.736,277.6 C728.128,276.016 738.928,268.672 738.928,250.24 C738.928,229.36 725.104,222.736 709.264,222.736 L685.216,222.736 C683.632,222.88 682.624,223.888 682.624,225.184 L682.624,325.408 Z M709.264,227.92 C723.664,227.92 733.744,234.256 733.744,250.24 C733.744,266.224 723.664,272.704 709.264,272.704 L687.808,272.704 L687.808,227.92 L709.264,227.92 Z" id="WEATHER" sketch:type="MSShapeGroup"></path>
            <path d="M911.26,233.536 C911.404,233.104 911.548,232.384 911.548,231.664 C911.548,226.768 903.484,222.736 897.004,222.736 C893.548,222.736 890.668,223.888 889.804,226.912 L867.916,300.784 L856.54,252.112 C855.676,248.224 850.636,246.208 845.74,246.208 C840.844,246.208 835.804,248.224 834.94,252.112 L823.564,300.784 L801.676,226.912 C800.812,223.888 797.932,222.736 794.476,222.736 C787.996,222.736 779.932,226.768 779.932,231.664 C779.932,232.384 780.076,233.104 780.22,233.536 L808.876,321.376 C810.46,326.416 817.084,328.864 823.708,328.864 C830.188,328.864 837.1,326.416 838.252,321.376 L845.74,287.248 L853.228,321.376 C854.38,326.416 861.292,328.864 867.772,328.864 C874.396,328.864 880.876,326.416 882.604,321.376 L911.26,233.536 Z M941.196,328 C944.796,328 947.676,326.848 948.54,323.824 L953.436,305.824 L983.82,305.824 L988.716,323.824 C989.58,326.848 992.46,328 996.06,328 C1002.252,328 1010.46,324.112 1010.46,318.784 C1010.46,318.352 1010.316,317.776 1010.172,317.2 L983.244,229.36 C981.66,224.32 975.18,221.872 968.556,221.872 C961.932,221.872 955.452,224.32 953.868,229.36 L927.084,317.2 C926.94,317.776 926.796,318.352 926.796,318.784 C926.796,324.112 935.004,328 941.196,328 L941.196,328 Z M958.044,288.544 L968.556,249.952 L979.068,288.544 L958.044,288.544 Z M1029.884,222.736 C1025.132,222.736 1023.116,227.92 1023.116,232.672 C1023.116,238.144 1025.564,242.896 1029.884,242.896 L1049.756,242.896 L1049.756,321.088 C1049.756,325.696 1055.372,328 1060.988,328 C1066.604,328 1072.22,325.696 1072.22,321.088 L1072.22,242.896 L1092.092,242.896 C1096.412,242.896 1098.86,238.144 1098.86,232.672 C1098.86,227.92 1096.844,222.736 1092.092,222.736 L1029.884,222.736 Z M1173.292,255.28 C1173.58,260.464 1178.476,262.048 1184.524,262.048 C1192.156,262.048 1195.756,260.032 1195.756,251.392 C1195.756,233.104 1180.204,222.736 1159.612,222.736 C1140.748,222.736 1125.052,231.952 1125.052,256.72 L1125.052,294.88 C1125.052,319.648 1140.748,328.864 1159.612,328.864 C1180.204,328.864 1195.756,317.92 1195.756,298.768 C1195.756,290.128 1192.156,288.112 1184.38,288.112 C1178.62,288.112 1173.724,289.552 1173.292,294.88 C1172.86,300.496 1172.14,309.28 1160.62,309.28 C1152.268,309.28 1147.516,304.672 1147.516,294.88 L1147.516,256.72 C1147.516,246.928 1152.268,242.32 1160.476,242.32 C1172.716,242.32 1173.148,251.536 1173.292,255.28 L1173.292,255.28 Z M1278.252,321.088 C1278.252,325.696 1283.868,328 1289.484,328 C1295.1,328 1300.716,325.696 1300.716,321.088 L1300.716,229.504 C1300.716,224.752 1295.1,222.736 1289.484,222.736 C1283.868,222.736 1278.252,224.752 1278.252,229.504 L1278.252,264.784 L1249.596,264.784 L1249.596,229.504 C1249.596,224.752 1243.98,222.736 1238.364,222.736 C1232.748,222.736 1227.132,224.752 1227.132,229.504 L1227.132,321.088 C1227.132,325.696 1232.748,328 1238.364,328 C1243.98,328 1249.596,325.696 1249.596,321.088 L1249.596,282.064 L1278.252,282.064 L1278.252,321.088 Z M1358.732,242.32 L1397.324,242.32 C1401.644,242.32 1404.092,237.712 1404.092,232.384 C1404.092,227.776 1402.076,222.736 1397.324,222.736 L1346.06,222.736 C1341.164,222.736 1336.268,225.04 1336.268,229.648 L1336.268,321.088 C1336.268,325.696 1341.164,328 1346.06,328 L1397.324,328 C1402.076,328 1404.092,322.96 1404.092,318.352 C1404.092,313.024 1401.644,308.416 1397.324,308.416 L1358.732,308.416 L1358.732,283.936 L1380.332,283.936 C1385.084,283.936 1387.1,279.328 1387.1,275.44 C1387.1,270.832 1384.652,266.656 1380.332,266.656 L1358.732,266.656 L1358.732,242.32 Z M1433.884,321.088 C1433.884,325.696 1439.5,328 1445.116,328 C1450.732,328 1456.348,325.696 1456.348,321.088 L1456.348,286.384 L1465.852,286.384 L1485.58,324.688 C1487.164,327.712 1489.9,328.864 1492.78,328.864 C1499.404,328.864 1506.892,322.816 1506.892,317.2 C1506.892,316.48 1506.748,315.472 1506.172,314.608 L1488.604,282.784 C1498.684,278.896 1506.028,269.68 1506.028,253.552 C1506.028,230.08 1490.332,222.736 1470.604,222.736 L1440.796,222.736 C1436.62,222.736 1433.884,225.904 1433.884,229.504 L1433.884,321.088 Z M1470.604,242.32 C1478.668,242.32 1483.564,245.632 1483.564,255.712 C1483.564,265.792 1478.668,269.104 1470.604,269.104 L1456.348,269.104 L1456.348,242.32 L1470.604,242.32 Z" id="WATCHER" sketch:type="MSShapeGroup"></path>
        </g>
    </g>
</svg>